# xmcd
#
# Track frame offsets: 
#        150
#        28568
#        46001
#        63093
#        81300
#        96300
#        118820
#        136229
#
# Disc length: 2290 seconds
#
# Revision: 0
# Processed by: cddbd v1.5.2PL0 Copyright (c) Steve Scherf et al.
# Submitted via: ExactAudioCopy v1.0b3
#
DISCID=6208f008
DTITLE=The Lauren Mitchell Bandt - Please Come Home
DYEAR=2013
DGENRE=Blues
TTITLE0=Come to Mama
TTITLE1=It's Raining
TTITLE2=Please Come Home
TTITLE3=Little By Little
TTITLE4=Get Off My Side of the Bed
TTITLE5=Do You Know
TTITLE6=Quittin' You
TTITLE7=House of the Rising Sun
EXTD=
EXTT0=
EXTT1=
EXTT2=
EXTT3=
EXTT4=
EXTT5=
EXTT6=
EXTT7=
PLAYORDER=
